# xmcd
#
# Track frame offsets: 
#        182
#        11277
#        37052
#        46245
#        55482
#        66337
#        81382
#        93032
#        108820
#        122345
#        152620
#        171102
#        197120
#        214282
#        239500
#
# Disc length: 3328 seconds
#
# Revision: 2
# Processed by: cddbd v1.5.1PL2 Copyright (c) Steve Scherf et al.
# Submitted via: ExactAudioCopy v0.95b2
#
DISCID=c50cfe0f
DTITLE=Various Artist - the soul of jazz, vol. 3
DYEAR=1995
DGENRE=Jazz
TTITLE0=ramsey lewis - john henry
TTITLE1=roy hargrove quintet - greens at the chicken shack
TTITLE2=nina simone - brown eyed handsome man
TTITLE3=john hendricks - yeh! yeh!
TTITLE4=oscar peterson - mas que nada
TTITLE5=cal tjader and eddie palmieri - along comes mary
TTITLE6=willie bobo - boogaloo in room
TTITLE7=kenny burrell - see see rider
TTITLE8=roland kirk - fall out
TTITLE9=jimmy smith - one for members
TTITLE10=dave pike - big schlepp
TTITLE11=directions in groove - sweet thing
TTITLE12=wynton kelly trio - kelly roll
TTITLE13=orchestre national de jazz laurent cugny - it's about that ti
TTITLE13=me
TTITLE14=jimmy smith - organ grinder swing
EXTD=YEAR: 1995
EXTT0=
EXTT1=
EXTT2=
EXTT3=
EXTT4=
EXTT5=
EXTT6=
EXTT7=
EXTT8=
EXTT9=
EXTT10=
EXTT11=
EXTT12=
EXTT13=
EXTT14=
PLAYORDER=
